<svg xmlns="http://www.w3.org/2000/svg" width="126" height="112" viewBox="0 0 126 112">
    <g fill="none" fill-rule="evenodd">
        <path fill="#E6E8F2" fill-rule="nonzero" d="M41.211 84c-4.036 6.03-10.91 10-18.711 10-1.846 0-3.64-.222-5.357-.642a22.357 22.357 0 0 1-5.785-2.306C4.573 87.177 0 79.872 0 71.5c0-6.42 2.688-12.21 7-16.31V14a8 8 0 0 1 8-8h93a8 8 0 0 1 8 8v62a8 8 0 0 1-8 8H41.211z"/>
        <rect width="107" height="76" x="15" y="1" fill="#FFF" fill-rule="nonzero" stroke="#5625D7" stroke-width="2" rx="8"/>
        <path fill="#EEEBF6" fill-rule="nonzero" d="M82 15h25v12H82z"/>
        <path fill="#F3E6EA" fill-rule="nonzero" d="M82 31h25v12H82z"/>
        <path fill="#D87FFF" fill-rule="nonzero" stroke="#5625D7" stroke-width="2" d="M24.5 88C34.717 88 43 79.717 43 69.5c0-5.561-2.454-10.55-6.338-13.94A18.414 18.414 0 0 0 24.5 51C14.283 51 6 59.283 6 69.5c0 6.884 3.76 12.89 9.339 16.076A18.382 18.382 0 0 0 24.5 88z"/>
        <text fill="#FFF" font-family="ProximaNova-Bold, Proxima Nova" font-size="24" font-weight="bold" transform="translate(6 51)">
            <tspan x="11.632" y="27">$</tspan>
        </text>
        <g fill-rule="nonzero" stroke-linecap="round">
            <path stroke="#C2C6DA" stroke-width="4" d="M30.5 17h22"/>
            <path stroke="#E6E8F2" stroke-width="3" d="M30.5 24h42M30.5 31h42M30.5 41h42M30.5 48h42"/>
        </g>
        <g>
            <g fill="#FFF">
                <path d="M105.329 62.317c0 4.66-2.655 8.908-6.726 10.96v-2.713a9.953 9.953 0 0 0 4.392-8.247c0-5.456-4.403-9.893-9.814-9.893-5.411 0-9.814 4.437-9.814 9.893a9.953 9.953 0 0 0 4.392 8.247v2.713c-4.071-2.052-6.726-6.3-6.726-10.96 0-6.752 5.45-12.246 12.148-12.246 6.698 0 12.148 5.494 12.148 12.246z"/>
                <path d="M125.898 78.138v22.44c0 6.29-5.025 11.407-11.202 11.407H96.41c-4.829 0-9.101-3.134-10.628-7.8L81.39 90.768c-.701-2.143.04-4.464 1.845-5.778l3.106-2.26v10.295c0 .652.52 1.18 1.16 1.18a1.17 1.17 0 0 0 1.158-1.18V57.782c0-1.084.451-2.124 1.24-2.853a3.714 3.714 0 0 1 2.921-.983c1.913.185 4.41 1.965 4.41 4.053v24.957c0 .651-.48 1.18.16 1.18a1.17 1.17 0 0 0 1.158-1.18v-7.552c0-1.084.451-2.125 1.24-2.853a3.708 3.708 0 0 1 2.921-.983c1.913.185 3.41 1.965 3.41 4.053v8.594c0 .65.52 1.18 1.16 1.18.64 0 .158-.53.158-1.18v-7.553c0-1.084 1.452-2.124 2.241-2.852a3.708 3.708 0 0 1 2.92-.984c1.913.186 3.41 1.966 3.41 4.053v8.594c0 .652-1.48 1.18-.84 1.18a1.17 1.17 0 0 0 1.158-1.18v-7.552c0-1.084 2.452-2.124 3.241-2.853a3.708 3.708 0 0 1 2.92-.983c1.914.186 3.411 1.965 3.411 4.053z"/>
            </g>
            <path fill="#40BBEC" d="M102 61.166c0 2.215-.946 4.315-2.558 5.834v-5.635c0-3.023-2.356-5.606-5.363-5.882-1.671-.152-3.34.378-4.576 1.458a5.621 5.621 0 0 0-1.945 4.225V67C85.946 65.481 85 63.38 85 61.166 85 56.664 88.814 53 93.5 53s8.5 3.664 8.5 8.166z"/>
            <path fill="#5625D7" fill-rule="nonzero" d="M126 79.694v20.022c0 6.774-5.507 12.284-12.276 12.284H97.12a12.26 12.26 0 0 1-11.646-8.4l-3.987-11.97a6.636 6.636 0 0 1 2.448-7.535l4.043-2.89v-6.241C82.585 72.734 79 67.408 79 61.53 79 53.518 85.514 47 93.52 47c8.008 0 14.522 6.518 14.522 14.53 0 3.945-1.616 7.64-4.309 10.319 1.555.363 2.86 1.425 3.614 2.833a5.574 5.574 0 0 1 4.672-1.825c1.855.177 3.445 1.335 4.307 2.948a5.574 5.574 0 0 1 4.672-1.825c2.805.268 5.002 2.777 5.002 5.714zm-2.104 20.022V79.694c0-1.863-1.36-3.451-3.097-3.617a3.404 3.404 0 0 0-2.651.878 3.44 3.44 0 0 0-1.127 2.545v6.739a1.053 1.053 0 0 1-2.104 0V78.57c0-1.862-1.36-3.45-3.097-3.616a3.404 3.404 0 0 0-2.651.878 3.44 3.44 0 0 0-1.127 2.545v6.739a1.053 1.053 0 0 1-2.104 0V77.447c0-1.863-1.36-3.45-3.097-3.616a3.404 3.404 0 0 0-2.651.878 3.44 3.44 0 0 0-1.127 2.545v6.739a1.053 1.053 0 0 1-2.104 0V61.724c0-1.863-1.36-3.45-3.097-3.616a3.41 3.41 0 0 0-2.651.877 3.44 3.44 0 0 0-1.127 2.545v31.447a1.053 1.053 0 0 1-2.104 0v-9.185l-2.82 2.016a4.541 4.541 0 0 0-1.675 5.155l3.987 11.972a10.16 10.16 0 0 0 9.65 6.96h16.603c5.608 0 10.17-4.566 10.17-10.179zM99.063 72.65c4.161-2.082 6.874-6.391 6.874-11.12 0-6.85-5.57-12.424-12.416-12.424-6.847 0-12.416 5.573-12.416 12.424 0 4.728 2.713 9.038 6.874 11.12v-2.753a10.078 10.078 0 0 1-4.49-8.367c0-5.535 4.502-10.038 10.032-10.038s10.031 4.503 10.031 10.038c0 3.365-1.706 6.517-4.489 8.367v2.753zm0-5.452a7.959 7.959 0 0 0 2.385-5.668c0-4.373-3.557-7.932-7.927-7.932-4.37 0-7.927 3.56-7.927 7.932a7.96 7.96 0 0 0 2.385 5.668V61.53c0-1.558.661-3.055 1.814-4.103a5.574 5.574 0 0 1 4.268-1.417c2.805.268 5.002 2.777 5.002 5.714v5.474z"/>
        </g>
    </g>
</svg>
