<svg xmlns="http://www.w3.org/2000/svg" width="129" height="115" viewBox="0 0 129 115">
    <g fill="none" fill-rule="nonzero">
        <path fill="#E6E8F2" d="M2.09 74.884l58.48-33.97a8 8 0 0 1 7.903-.076l57.542 31.954a4 4 0 0 1 .067 6.956l-58.481 33.97a8 8 0 0 1-7.902.076L2.156 81.84a4 4 0 0 1-.067-6.956z"/>
        <path fill="#FFF" stroke="#5625D7" stroke-width="2" d="M2.592 69.117a3 3 0 0 0 .05 5.217l57.542 31.954a7 7 0 0 0 6.914-.067l58.482-33.97a3 3 0 0 0-.05-5.217L67.986 35.08a7 7 0 0 0-6.914.067L2.592 69.117z"/>
        <path fill="#D87FFF" stroke="#5625D7" stroke-width="2" d="M19.202 70.684L64.5 44.158l14.363 7.737L33.565 78.42z"/>
        <path fill="#9880D8" stroke="#5625D7" stroke-width="2" d="M40.194 82.842l45.298-26.526 8.839 4.42-45.299 26.527zM55.661 90.579l45.299-26.526 8.838 4.42L64.5 95z"/>
        <g>
            <path fill="#FFF" fill-opacity=".8" stroke="#5625D7" stroke-width="2" d="M2.626 35.924a3 3 0 0 0 .05 5.223l57.52 31.79a7 7 0 0 0 6.89-.066l58.46-33.795a3 3 0 0 0-.051-5.223l-57.52-31.79a7 7 0 0 0-6.89.066L2.626 35.924z"/>
            <path stroke="#64748F" stroke-linecap="round" stroke-width="4" d="M21.964 38.6l12.153-7.15"/>
            <path stroke="#9EAECA" stroke-linecap="round" stroke-width="3" d="M30.802 44.1l41.64-24.498M37.431 47.4l41.64-24.498M44.06 50.7L85.7 26.202M54.004 56.2l41.64-24.498M60.633 59.5l41.64-24.498"/>
        </g>
    </g>
</svg>
