<svg xmlns="http://www.w3.org/2000/svg" width="100" height="100" viewBox="0 0 100 100"><path fill="#3DB39E" d="M50.001 0c27.613 0 50 22.386 50 50s-22.387 50-50 50c-27.615 0-50-22.387-50-50-.001-27.614 22.385-50 50-50z"/><path fill="#FDFEFE" d="M75.69 40.626c-2.037-.662-4.275-1.233-6.662-1.714.777-2.316 1.418-4.558 1.867-6.66 1.633-7.658.805-12.691-2.395-14.552-.801-.468-1.723-.703-2.738-.703-1.504 0-3.211.534-5.057 1.532-1.932 1.196-4.414 3.021-6.078 4.507-1.514 1.39-3.064 2.993-4.627 4.786-5.873-6.74-11.603-10.824-15.762-10.824-1.016 0-1.938.235-2.739.703-3.197 1.861-4.025 6.895-2.394 14.552.448 2.103 1.089 4.344 1.867 6.659-2.388.48-4.625 1.052-6.661 1.714-7.4 2.407-11.311 5.644-11.311 9.368 0 2.555 1.844 4.882 5.393 6.869 2.124 1.082 4.147 1.939 7.218 2.898 1.676.496 3.473.932 5.362 1.312-.778 2.316-1.419 4.557-1.867 6.658-1.631 7.662-.803 12.693 2.396 14.555.802.465 1.722.701 2.737.701 4.16 0 9.89-4.082 15.762-10.824 5.873 6.742 11.602 10.826 15.762 10.826 1.016 0 1.936-.236 2.736-.701 2.438-1.418 3.494-4.678 3.141-9.533-.051-.863-.945-6.035-1.355-7.549-.354-1.338-.781-2.721-1.256-4.131 2.389-.48 4.625-1.053 6.662-1.715 7.4-2.406 11.311-5.644 11.311-9.367-.001-3.723-3.911-6.96-11.312-9.367zm-19.599-15.695c1.893-1.639 3.129-2.572 5.965-4.416 1.43-.749 2.686-1.136 3.707-1.136.605 0 1.113.124 1.559.383 2.129 1.24 2.602 5.724 1.266 11.994-.451 2.115-1.105 4.379-1.904 6.724-2.98-.503-6.156-.87-9.461-1.086-1.859-2.812-3.766-5.407-5.672-7.735 1.563-1.811 3.087-3.388 4.54-4.728zm2.892 30.291c-1.02 1.779-2.051 3.467-3.082 5.068-1.902.104-3.869.16-5.902.16-2.031 0-3.998-.057-5.899-.16-1.032-1.602-2.063-3.287-3.083-5.068-1.002-1.747-1.929-3.497-2.807-5.239.86-1.707 1.794-3.448 2.807-5.217 1.02-1.78 2.051-3.467 3.083-5.068 1.901-.104 3.868-.16 5.899-.16 2.033 0 4 .057 5.902.16 1.031 1.602 2.062 3.287 3.082 5.068 1.014 1.769 1.947 3.51 2.807 5.217-.877 1.742-1.805 3.492-2.807 5.239zm4.102-2.577c1.068 2.28 1.994 4.481 2.783 6.583-2.197.361-4.549.652-7.039.861.744-1.193 1.48-2.418 2.201-3.678.719-1.256 1.397-2.511 2.055-3.766zm-8.816 10.1c-1.434 2.086-2.863 4.004-4.268 5.736-1.406-1.732-2.835-3.648-4.268-5.736 1.407.053 2.831.084 4.266.084 1.439 0 2.861-.031 4.27-.084zm-13.096-2.656c-2.49-.209-4.843-.5-7.04-.863.788-2.1 1.715-4.301 2.783-6.581.658 1.256 1.337 2.511 2.057 3.767.72 1.257 1.456 2.482 2.2 3.677zm-4.251-12.758c-1.046-2.231-1.981-4.431-2.787-6.57 2.196-.361 4.548-.654 7.037-.861-.744 1.194-1.48 2.419-2.201 3.678-.715 1.249-1.392 2.501-2.049 3.753zm8.811-10.088c1.433-2.088 2.862-4.004 4.268-5.738 1.404 1.734 2.834 3.65 4.268 5.738-1.408-.054-2.832-.084-4.27-.084-1.436 0-2.859.03-4.266.084zm15.297 6.333c-.721-1.259-1.457-2.482-2.201-3.678 2.488.208 4.84.5 7.037.861-.807 2.14-1.742 4.339-2.787 6.57-.656-1.25-1.332-2.502-2.049-3.753zm-29.614-11.821c-1.337-6.271-.863-10.754 1.266-11.994.444-.259.955-.383 1.558-.383 3.117 0 8.383 3.538 14.213 10.278-1.904 2.329-3.81 4.923-5.669 7.735-3.306.217-6.483.584-9.462 1.087-.8-2.344-1.455-4.607-1.906-6.723zm-5.316 25.656c-2.791-1-4.03-1.48-6.448-2.6-2.761-1.524-4.29-3.202-4.29-4.818 0-3.277 6.252-6.801 16.406-8.806 1.057 2.854 2.327 5.81 3.795 8.806-1.468 2.995-2.738 5.951-3.795 8.806-2.055-.405-3.953-.872-5.668-1.388zm8.139 23.197c-.603 0-1.113-.125-1.558-.383-2.815-1.639-2.718-8.855.637-18.719 2.98.504 6.158.871 9.465 1.088 1.86 2.812 3.766 5.406 5.669 7.734-5.831 6.743-11.097 10.28-14.213 10.28zm33.74-14.839c.221 1.105.99 4.537 1.289 7.268.252 3.736-.414 6.295-1.949 7.189-.445.258-.953.383-1.557.383-3.115 0-8.381-3.537-14.213-10.279 1.904-2.328 3.811-4.924 5.67-7.734 3.307-.217 6.484-.584 9.465-1.088.504 1.481.938 2.907 1.295 4.261zm.254-6.969c-1.059-2.854-2.328-5.812-3.795-8.806 1.467-2.996 2.736-5.952 3.795-8.806 10.154 2.005 16.406 5.528 16.406 8.806.001 3.277-6.251 6.8-16.406 8.806z"/><path fill="#E2574C" d="M42.5 19c-1.933 0-3.5 1.567-3.5 3.5 0 1.934 1.567 3.5 3.5 3.5s3.5-1.566 3.5-3.5c0-1.932-1.567-3.5-3.5-3.5zm-12 48.001c-1.933 0-3.5 1.566-3.5 3.5 0 1.932 1.567 3.5 3.5 3.5s3.5-1.568 3.5-3.5c0-1.934-1.567-3.5-3.5-3.5zm47.001-14.001c-1.934 0-3.5 1.567-3.5 3.501s1.566 3.5 3.5 3.5c1.932 0 3.5-1.566 3.5-3.5s-1.568-3.501-3.5-3.501z"/><path fill="#EB9891" d="M43.5 20c-.828 0-1.5.672-1.5 1.5s.672 1.5 1.5 1.5 1.5-.672 1.5-1.5-.671-1.5-1.5-1.5zm-12 48.001c-.828 0-1.5.672-1.5 1.5s.672 1.5 1.5 1.5 1.5-.672 1.5-1.5-.671-1.5-1.5-1.5zm47.001-14.001c-.828 0-1.5.673-1.5 1.501s.672 1.5 1.5 1.5 1.5-.672 1.5-1.5-.672-1.501-1.5-1.501z"/><path fill="#324D5B" d="M50.001 43c3.865 0 7 3.134 7 7 0 3.867-3.135 7-7 7-3.867 0-7-3.134-7-7-.001-3.866 3.133-7 7-7z"/><path fill="#6E818B" d="M52.001 46c1.104 0 2 .896 2 2s-.896 2-2 2c-1.105 0-2-.896-2-2s.895-2 2-2z"/><path fill="#2D4552" d="M51.001 56.001c-3.867 0-7-3.134-7-7 0-1.678.592-3.218 1.577-4.423-1.573 1.283-2.578 3.234-2.578 5.422 0 3.867 3.134 7 7 7 2.188 0 4.14-1.005 5.423-2.577-1.204.986-2.744 1.578-4.422 1.578z"/><path fill="#FDFEFE" d="M42.5 19c1.933 0 3.5 1.567 3.5 3.5 0 1.934-1.567 3.5-3.5 3.5s-3.5-1.566-3.5-3.5c0-1.932 1.568-3.5 3.5-3.5m35.001 34c1.932 0 3.5 1.567 3.5 3.501s-1.568 3.5-3.5 3.5c-1.934 0-3.5-1.566-3.5-3.5s1.566-3.501 3.5-3.501m-47.001 14.001c1.933 0 3.5 1.566 3.5 3.5 0 1.932-1.567 3.5-3.5 3.5s-3.5-1.568-3.5-3.5c0-1.934 1.568-3.5 3.5-3.5m12-50.001c-3.033 0-5.5 2.467-5.5 5.5s2.467 5.5 5.5 5.5 5.5-2.467 5.5-5.5-2.467-5.5-5.5-5.5zm35.001 34c-3.032 0-5.5 2.468-5.5 5.501 0 3.032 2.468 5.5 5.5 5.5s5.5-2.468 5.5-5.5c0-3.033-2.468-5.501-5.5-5.501zm-47.001 14.001c-3.033 0-5.5 2.468-5.5 5.5s2.467 5.5 5.5 5.5 5.5-2.468 5.5-5.5-2.467-5.5-5.5-5.5z"/><g fill="#CB4E44"><path d="M43.5 25c-1.933 0-3.5-1.566-3.5-3.5 0-.71.215-1.37.579-1.921-.95.626-1.579 1.699-1.579 2.921 0 1.934 1.567 3.5 3.5 3.5 1.222 0 2.295-.628 2.921-1.579-.551.365-1.21.579-1.921.579zM31.5 73.001c-1.933 0-3.5-1.568-3.5-3.5 0-.711.215-1.37.579-1.922-.95.626-1.579 1.699-1.579 2.922 0 1.932 1.567 3.5 3.5 3.5 1.222 0 2.295-.629 2.921-1.579-.551.364-1.21.579-1.921.579zM78.501 59.001c-1.934 0-3.5-1.566-3.5-3.5 0-.711.215-1.37.579-1.923-.95.626-1.579 1.7-1.579 2.923 0 1.934 1.566 3.5 3.5 3.5 1.222 0 2.295-.629 2.921-1.579-.552.364-1.211.579-1.921.579z"/></g></svg>