<svg xmlns="http://www.w3.org/2000/svg" xmlns:xlink="http://www.w3.org/1999/xlink" width="100" height="100" viewBox="0 0 100 100"><path fill="#324D5B" d="M50 0c-27.614 0-50 22.386-50 50 0 27.616 22.386 50 50 50s50-22.385 50-50c0-27.614-22.386-50-50-50z"/><defs><path id="a" d="M50 0c-27.614 0-50 22.386-50 50 0 27.616 22.386 50 50 50s50-22.385 50-50c0-27.614-22.386-50-50-50z"/></defs><clipPath id="b"><use xlink:href="#a" overflow="visible"/></clipPath><g clip-path="url(#b)"><path fill="#2B8272" d="M16.613 48.492l37.388-7.451c1.087-.217 2.145.485 2.362 1.565l13.597 67.549c.218 1.081-.486 2.134-1.573 2.35l-37.388 7.452c-1.087.216-2.145-.485-2.362-1.566l-13.597-67.549c-.218-1.081.486-2.133 1.573-2.35z"/><path fill="#4B9587" d="M52.613 45.808c-.109-.543-.641-.895-1.186-.786l-31.617 6.301c-.546.108-.899.637-.791 1.18l3.364 16.711c.109.542.641.895 1.187.785.546-.108.899-.637.79-1.18l-3.166-15.729 29.641-5.906 3.166 15.728c.109.543.641.895 1.187.786.545-.108.899-.638.79-1.18l-3.365-16.71z"/><path fill="#359685" d="M26.925 37.077l37.942-3.697c1.104-.107 2.086.696 2.194 1.794l6.813 68.566c.109 1.098-.696 2.074-1.8 2.182l-37.942 3.697c-1.104.107-2.086-.695-2.194-1.794l-6.813-68.566c-.109-1.098.696-2.075 1.8-2.182z"/><path fill="#52A597" d="M63.013 37.985c-.055-.551-.548-.954-1.102-.9l-32.087 3.125c-.554.054-.959.545-.904 1.096l1.687 16.962c.055.552.548.954 1.102.9s.958-.544.903-1.096l-1.586-15.964 30.082-2.93 1.587 15.965c.055.551.548.955 1.102.9s.958-.545.903-1.096l-1.687-16.962z"/><path fill="#3DB39E" d="M40 26.999h38c1.104 0 2 .896 2 2v71c0 1.104-.896 2-2 2h-38c-1.104 0-2-.896-2-2v-71c0-1.104.896-2 2-2z"/><path fill="#81CEC0" d="M59 42.999c1.104 0 2-.896 2-2s-.896-2-2-2-2 .896-2 2 .896 2 2 2zm0 49c1.104 0 2-.896 2-2s-.896-2-2-2-2 .896-2 2 .896 2 2 2zm16-61h-32c-.553 0-1 .448-1 1v18c0 .553.447 1 1 1s1-.447 1-1v-17h30v17c0 .553.447 1 1 1s1-.447 1-1v-18c0-.552-.447-1-1-1zm0 50c-.553 0-1 .448-1 1v18h-30v-18c0-.552-.447-1-1-1s-1 .448-1 1v19c0 .552.447 1 1 1h32c.553 0 1-.448 1-1v-19c0-.552-.447-1-1-1zM59 50.999c-8.284 0-15 6.716-15 15s6.716 15 15 15 15-6.716 15-15-6.716-15-15-15zm8.065 16.02h-1.158c-.199 1.56-.838 2.847-1.797 3.511-.18.117-.399.194-.639.194-.579 0-1.058-.468-1.058-1.053 0-.272.159-.546.438-.839.6-.604 1.059-1.619 1.059-2.73 0-1.619-.778-2.225-1.577-2.225-2.615 0-1.397 7.12-6.389 7.12-2.196 0-3.633-1.365-3.893-3.979h-1.118c-.519 0-.938-.41-.938-.917 0-.488.42-.897.938-.897h1.118c.239-1.892 1.277-3.374 2.375-4.038.16-.098.359-.156.56-.156.599 0 1.078.469 1.078 1.034 0 .429-.239.663-.439.858-.839.819-1.517 1.854-1.517 3.199 0 1.774.599 2.633 1.836 2.633 2.915 0 1.577-7.119 6.389-7.119 1.776 0 3.313 1.092 3.594 3.589h1.138c.519 0 .938.409.938.897.001.507-.419.918-.938.918z"/></g></svg>