<svg xmlns="http://www.w3.org/2000/svg" width="100" height="100" viewBox="0 0 100 100"><path fill="#E2574C" d="M50 0c27.614 0 50 22.386 50 50s-22.386 50-50 50-50-22.386-50-50 22.386-50 50-50z"/><path fill="#E4C755" d="M24.984 93.285c7.276 4.214 15.706 6.652 24.707 6.707h.618c9-.055 17.43-2.493 24.707-6.707v-44.283h-50.032v44.283z"/><path fill="#D7BB50" d="M24.984 93.285c2.982 1.728 6.157 3.156 9.488 4.244l40.543-40.472v-8.055h-50.031v44.283z"/><path fill="#F4F5F5" d="M24.984 93.285c7.36 4.263 15.899 6.715 25.016 6.715 4.132 0 8.144-.511 11.984-1.456v-36.548h-37v31.289z"/><path fill="#E6E7E7" d="M24.984 93.285c2.982 1.728 6.157 3.156 9.488 4.244l27.512-27.464v-8.069h-37v31.289z"/><path fill="#C0C3C5" d="M38.42 78.99h-13.436v3.022h13.436c.872 0 1.58-.677 1.58-1.512s-.708-1.51-1.58-1.51zm-3 6h-10.436v3.022h10.436c.872 0 1.58-.677 1.58-1.512s-.708-1.51-1.58-1.51z"/><path fill="#39A895" d="M25.016 68.99h22.371c.882 0 1.598.748 1.598 1.669v1.669c0 .921-.716 1.668-1.598 1.668h-22.371v-5.006z"/><path fill="#EED470" d="M23.794 52.005h52.412c.438 0 .794.335.794.748v1.497c0 .413-.355.748-.794.748h-52.412c-.438 0-.794-.335-.794-.748v-1.497c0-.413.355-.748.794-.748z"/><path fill="#E5E5E5" d="M37.432 25.009h25.121c1.343 0 2.432 1.15 2.432 2.569v3.426h-29.985v-3.426c0-1.418 1.089-2.569 2.432-2.569z"/><path fill="#C9C9C9" d="M42.432 25.009h-5c-1.343 0-2.432 1.15-2.432 2.569v3.426h5v-3.426c0-1.418 1.089-2.569 2.432-2.569z"/><path fill="#DEDEDE" d="M25.849 30.004h48.271c2.687 0 4.865 2.219 4.865 4.956v11.564c0 1.369-1.089 2.478-2.433 2.478h-53.135c-1.344 0-2.433-1.109-2.433-2.478v-11.564c0-2.737 2.178-4.956 4.865-4.956z"/><path fill="#C7C7C7" d="M41 49.002h2v-18.998h-2v18.998zm4 0h2v-18.998h-2v18.998zm4 0h2v-18.998h-2v18.998zm4 0h2v-18.998h-2v18.998zm4-18.998v18.999h2v-18.999h-2z"/><path fill="#CCB660" d="M39 54.25v-1.497c0-.413.355-.748.794-.748h-16c-.438 0-.794.335-.794.748v1.497c0 .413.355.748.794.748h16c-.439 0-.794-.335-.794-.748z"/><path fill="#C7C7C7" d="M26.984 46.524v-11.564c0-2.737 2.178-4.956 4.864-4.956h-6c-2.687 0-4.864 2.219-4.864 4.956v11.564c0 1.369 1.089 2.478 2.433 2.478h6c-1.344 0-2.433-1.109-2.433-2.478z"/></svg>