<svg xmlns="http://www.w3.org/2000/svg" width="100" height="100" viewBox="0 0 100 100"><path fill="#91D8F0" d="M50 0c-27.614 0-50 22.387-50 50 0 27.614 22.386 50 50 50 27.615 0 50-22.386 50-50 0-27.613-22.385-50-50-50z"/><path fill="#7EBCD2" d="M97.369 66h-94.738c6.674 19.764 25.353 34 47.369 34 22.018 0 40.695-14.236 47.369-34z"/><path fill="#fff" d="M67 39.283v-9.283c1.105 0 2-.896 2-2s-.895-2-2-2h-14c-1.104 0-2 .896-2 2s.896 2 2 2v9.283c-7.588 2.841-13 10.138-13 18.717 0 11.046 8.955 20 20 20 11.047 0 20-8.954 20-20 0-8.579-5.412-15.876-13-18.717z"/><path fill="#E2574C" d="M57 54c8.021 0 17.266-7.337 19.533.027.387 1.252.467 2.605.467 3.973 0 9.389-7.611 17-17 17s-17-7.611-17-17c0-1.997.344-3.913.977-5.693 1.537-4.075 5.63 1.693 13.023 1.693z"/><path fill="#E87970" d="M54.5 57c-1.934 0-3.5 1.566-3.5 3.5 0 1.933 1.566 3.5 3.5 3.5s3.5-1.567 3.5-3.5c0-1.934-1.566-3.5-3.5-3.5zm8.5 7c-1.656 0-3 1.343-3 3s1.344 2.999 3 2.999 3-1.342 3-2.999-1.344-3-3-3zm1.5-7c-.828 0-1.5.671-1.5 1.5 0 .828.672 1.499 1.5 1.499s1.5-.671 1.5-1.499c0-.829-.672-1.5-1.5-1.5zm5.5 2.999c-1.104 0-2 .896-2 2 0 1.105.896 2.001 2 2.001 1.105 0 2-.896 2-2.001 0-1.103-.895-2-2-2zm1.5-5.999c-.828 0-1.5.671-1.5 1.5 0 .828.672 1.5 1.5 1.5s1.5-.672 1.5-1.5c0-.829-.672-1.5-1.5-1.5z"/><path fill="#E5E5E5" d="M53 30h14v1.999h-14v-1.999z"/><path fill="#fff" d="M46 26h-20c-1.104 0-2 .896-2 2s.896 2 2 2v38c0 5.522 4.477 10 10 10s10-4.478 10-10v-38c1.105 0 2-.896 2-2s-.895-2-2-2z"/><path fill="#E5E5E5" d="M26 30h20v1.999h-20v-1.999z"/><path fill="#F4B459" d="M38.999 38.999c2.127 0 4.002 1 4.002 1v27.001c0 3.866-3.134 8-7 8s-7-3.135-7-7v-28.001s1.813 1 3.969 1c2.157 0 3.947-2 6.029-2z"/><path fill="#F7CB8B" d="M34.5 57c1.381 0 2.5-1.12 2.5-2.501 0-1.38-1.119-2.499-2.5-2.499s-2.5 1.119-2.5 2.499c0 1.381 1.12 2.501 2.5 2.501zm4-7.001c.828 0 1.5-.671 1.5-1.499 0-.829-.672-1.5-1.5-1.5s-1.5.671-1.5 1.5c0 .828.672 1.499 1.5 1.499zm-.5 10c-1.104 0-2 .896-2 2 0 1.105.896 2.001 2 2.001s2-.896 2-2.001c0-1.103-.895-2-2-2zm-4.5 5c-.828 0-1.5.672-1.5 1.5s.672 1.501 1.5 1.501 1.5-.673 1.5-1.501-.671-1.5-1.5-1.5z"/><path fill="#D6D6D6" d="M44.375 45.549v24.916c1.311 1.641 2.869 3.07 4.625 4.23v-33.375c-1.756 1.159-3.313 2.59-4.625 4.229z"/><path fill="#F2F2F2" d="M36 78c5.523 0 10-4.478 10-10v-36.001h-10v46.001z"/><path fill="#E8AB54" d="M36 40.005v34.995c3.866 0 7-4.134 7-8v-27.001s-1.875-1-4.002-1c-1.045 0-2.016.504-2.998 1.006z"/><g fill="#EFC488"><path d="M36 52.511v3.978c.604-.456 1-1.174 1-1.989 0-.815-.396-1.532-1-1.989z"/><circle cx="38" cy="62" r="2"/><circle cx="38.5" cy="48.5" r="1.5"/></g><path fill="#eee" d="M67 39.283v-7.284h-7v46.001c11.047 0 20-8.954 20-20 0-8.579-5.412-15.876-13-18.717z"/><path fill="#D35349" d="M60 53.707v21.293c9.389 0 17-7.611 17-17 0-1.368-.08-2.721-.467-3.973-1.988-6.459-9.344-1.61-16.533-.32z"/><g fill="#D8726A"><circle cx="71.5" cy="55.5" r="1.5"/><circle cx="70" cy="61.999" r="2"/><circle cx="63" cy="67" r="3"/><circle cx="64.5" cy="58.5" r="1.5"/></g><path fill="#BE4940" d="M46 67.634c.852 1.233 1.861 2.347 3 3.314v-19.01c-1.197-.531-2.192-.978-3-1.067v16.763z"/></svg>