<?xml version="1.0" encoding="UTF-8"?>
<svg width="60px" height="29px" viewBox="0 0 60 29" version="1.1" xmlns="http://www.w3.org/2000/svg" xmlns:xlink="http://www.w3.org/1999/xlink">
    <!-- Generator: Sketch 53.2 (72643) - https://sketchapp.com -->
    <title>Halo Logo - Reversed</title>
    <desc>Created with Sketch.</desc>
    <g id="Page-1" stroke="none" stroke-width="1" fill="none" fill-rule="evenodd">
        <g id="Create-Account" transform="translate(-150.000000, -32.000000)">
            <g id="Halo-Logo---Reversed" transform="translate(150.000000, 32.000000)">
                <polyline id="Fill-1" fill="#FFFFFE" points="3.315 15.5476154 3.315 27.8296154 0.0376153846 27.8296154 0.0376153846 0.324230769 3.315 0.324230769 3.315 12.6062308 10.5431538 12.6062308 10.5431538 0.324230769 13.821 0.324230769 13.821 27.8296154 10.5431538 27.8296154 10.5431538 15.5476154 3.315 15.5476154"></polyline>
                <path d="M49.7088462,7.25792308 C49.7088462,4.61053846 50.8435385,3.01384615 53.1966923,3.01384615 C55.5923077,3.01384615 56.6845385,4.61053846 56.6845385,7.25792308 L56.6845385,12.6062308 L59.9623846,12.6062308 L59.9623846,7.42592308 C59.9623846,2.90261538 57.7084615,-0.00461538462 53.1145385,0.0306923077 C49.4026154,0.0590769231 46.473,3.22384615 46.473,6.93576923 L46.473,12.6062308 L49.7088462,12.6062308 L49.7088462,7.25792308" id="Fill-2" fill="#4CA4F5"></path>
                <path d="M56.6845385,20.8959231 C56.6845385,23.5853077 55.5923077,25.14 53.1966923,25.14 C50.8435385,25.14 49.7088462,23.5853077 49.7088462,20.8959231 L49.7088462,15.5476154 L46.473,15.5476154 L46.473,20.727 C46.473,25.182 48.7001538,28.1236154 53.1966923,28.1236154 C57.7354615,28.1236154 59.9623846,25.182 59.9623846,20.727 L59.9623846,15.5476154 L56.6845385,15.5476154 L56.6845385,20.8959231" id="Fill-3" fill="#FFFFFE"></path>
                <path d="M21.4022308,12.6062308 L21.4022308,7.25792308 C21.4022308,4.61053846 22.5369231,3.01384615 24.8900769,3.01384615 C27.2856923,3.01384615 28.3779231,4.61053846 28.3779231,7.25792308 L28.3779231,12.6062308 L21.4022308,12.6062308 Z M24.8079231,0.0306923077 C21.096,0.0590769231 18.1663846,3.22384615 18.1663846,6.93576923 L18.1663846,27.8296154 L21.4022308,27.8296154 L21.4022308,15.5476154 L28.3779231,15.5476154 L28.3779231,27.8296154 L31.6557692,27.8296154 L31.6557692,7.42592308 C31.6557692,2.90261538 29.4018462,-0.00461538462 24.8079231,0.0306923077 L24.8079231,0.0306923077 Z" id="Fill-4" fill="#FFFFFE"></path>
                <path d="M43.7619231,25.14 L42.7248462,25.14 C40.3716923,25.14 39.237,23.5853077 39.237,20.8959231 L39.237,0.324230769 L36.0011538,0.324230769 L36.0011538,20.727 C36.0011538,25.182 38.2283077,28.1236154 42.7248462,28.1236154 L43.7619231,28.1236154 L43.7619231,25.14" id="Fill-5" fill="#FFFFFE"></path>
            </g>
        </g>
    </g>
</svg>