<?xml version="1.0" encoding="utf-8"?>
<!-- Generator: Adobe Illustrator 15.0.0, SVG Export Plug-In  -->
<!DOCTYPE svg PUBLIC "-//W3C//DTD SVG 1.1//EN" "http://www.w3.org/Graphics/SVG/1.1/DTD/svg11.dtd" [
	<!ENTITY ns_flows "http://ns.adobe.com/Flows/1.0/">
]>
<svg version="1.1"
	 xmlns="http://www.w3.org/2000/svg" xmlns:xlink="http://www.w3.org/1999/xlink" xmlns:a="http://ns.adobe.com/AdobeSVGViewerExtensions/3.0/"
	 x="0px" y="0px" width="107px" height="50px" viewBox="-0.564 -0.183 107 50"
	 overflow="visible" enable-background="new -0.564 -0.183 107 50" xml:space="preserve">
<defs>
</defs>
<polygon fill="#ffffff" points="5.79,27.416 5.79,49.115 0,49.115 0,0.52 5.79,0.52 5.79,22.218 18.56,22.218 18.56,0.52
	24.352,0.52 24.352,49.115 18.56,49.115 18.56,27.416 "/>
<path fill="#3FBBEC" d="M87.755,12.77c0-4.679,2.005-7.498,6.163-7.498c4.232,0,6.163,2.819,6.163,7.498v9.449h5.79v-9.151
	c0-7.992-3.982-13.127-12.098-13.066c-6.558,0.051-11.734,5.642-11.734,12.2v10.018h5.716V12.77z"/>
<path fill="#ffffff" d="M100.08,36.864c0,4.752-1.93,7.499-6.162,7.499c-4.156,0-6.163-2.747-6.163-7.499v-9.448h-5.716v9.15
	c0,7.871,3.936,13.066,11.879,13.066c8.02,0,11.953-5.195,11.953-13.066v-9.15h-5.791V36.864z"/>
<path fill="#ffffff" d="M43.762,0c-6.557,0.051-11.734,5.642-11.734,12.2v10.018v5.197v21.699h5.717V27.416H50.07v21.699h5.79
	V27.416v-5.197v-9.151C55.86,5.075,51.878-0.062,43.762,0 M37.746,22.218V12.77c0-4.677,2.003-7.498,6.161-7.498
	c4.234,0,6.164,2.821,6.164,7.498v9.449H37.746z"/>
<path fill="#ffffff" d="M77.249,44.363h-1.832c-4.158,0-6.162-2.747-6.162-7.499V0.52h-5.717v36.046
	c0,7.871,3.935,13.068,11.879,13.068h1.832V44.363z"/>
</svg>
