<svg width="18" height="24" viewBox="0 0 18 24" fill="none" xmlns="http://www.w3.org/2000/svg">
<path d="M8.25 9.75C10.114 9.75 11.625 11.261 11.625 13.125C11.625 14.989 10.114 16.5 8.25 16.5C6.386 16.5 4.875 14.989 4.875 13.125C4.875 11.261 6.386 9.75 8.25 9.75Z" stroke="#39424F" stroke-width="1.5" stroke-linecap="round" stroke-linejoin="round"/>
<path d="M9.414 18.112C9.03 18.038 8.641 18 8.25 18C5.216 17.997 2.65 20.243 2.25 23.25" stroke="#39424F" stroke-width="1.5" stroke-linecap="round" stroke-linejoin="round"/>
<path d="M11.25 20.25H14.25" stroke="#39424F" stroke-width="1.5" stroke-linecap="round" stroke-linejoin="round"/>
<path d="M6.75 3.75H2.25C1.422 3.75 0.75 4.422 0.75 5.25V21.75C0.75 22.578 1.422 23.25 2.25 23.25H15.75C16.578 23.25 17.25 22.578 17.25 21.75V5.25C17.25 4.422 16.578 3.75 15.75 3.75H11.25" stroke="#39424F" stroke-width="1.5" stroke-linecap="round" stroke-linejoin="round"/>
<path d="M11.25 3C11.25 1.757 10.243 0.75 9 0.75C7.757 0.75 6.75 1.757 6.75 3V6C6.75 6.414 7.086 6.75 7.5 6.75H10.5C10.914 6.75 11.25 6.414 11.25 6V3Z" stroke="#39424F" stroke-width="1.5" stroke-linecap="round" stroke-linejoin="round"/>
</svg>
