<svg width="24" height="24" viewBox="0 0 24 24" fill="none" xmlns="http://www.w3.org/2000/svg">
<path d="M19.2759 3.738C18.7409 1.929 17.8649 0.75 16.8749 0.75C15.8849 0.75 15.0089 1.929 14.4749 3.738" stroke="black" stroke-width="1.5" stroke-linecap="round" stroke-linejoin="round"/>
<path d="M14.4749 12.0122C15.0089 13.8212 15.8849 15.0002 16.8749 15.0002C17.8649 15.0002 18.7409 13.8212 19.2749 12.0122" stroke="black" stroke-width="1.5" stroke-linecap="round" stroke-linejoin="round"/>
<path d="M18.3357 5.32707C14.9097 3.36307 11.4777 2.91107 10.6717 4.31807C9.86567 5.72506 11.9887 8.45807 15.4147 10.4231C18.8407 12.3881 22.2727 12.8391 23.0787 11.4321C23.8847 10.0251 21.7617 7.29107 18.3357 5.32707Z" stroke="black" stroke-width="1.5" stroke-linecap="round" stroke-linejoin="round"/>
<path d="M23.0788 4.31807C22.2718 2.91107 18.8408 3.36307 15.4148 5.32707C11.9888 7.29107 9.86484 10.0251 10.6718 11.4321C11.4788 12.8391 14.9098 12.3871 18.3358 10.4231C21.7618 8.45907 23.8858 5.72506 23.0788 4.31807Z" stroke="black" stroke-width="1.5" stroke-linecap="round" stroke-linejoin="round"/>
<path d="M16.875 7.5C16.668 7.5 16.5 7.668 16.5 7.875" stroke="black" stroke-width="1.5" stroke-linecap="round" stroke-linejoin="round"/>
<path d="M17.25 7.875C17.25 7.668 17.082 7.5 16.875 7.5" stroke="black" stroke-width="1.5" stroke-linecap="round" stroke-linejoin="round"/>
<path d="M16.875 8.25C17.082 8.25 17.25 8.082 17.25 7.875" stroke="black" stroke-width="1.5" stroke-linecap="round" stroke-linejoin="round"/>
<path d="M16.5 7.875C16.5 8.082 16.668 8.25 16.875 8.25" stroke="black" stroke-width="1.5" stroke-linecap="round" stroke-linejoin="round"/>
<path d="M18.75 23.25V19.5" stroke="black" stroke-width="1.5" stroke-linecap="round" stroke-linejoin="round"/>
<path d="M12.375 0.75C5.236 0.75 3.695 6.628 1.15 13.23C1.001 13.617 1.195 14.052 1.582 14.2C1.667 14.233 1.758 14.25 1.85 14.25H3.75V17.25C3.75 18.907 5.093 20.25 6.75 20.25H8.25V23.25" stroke="black" stroke-width="1.5" stroke-linecap="round" stroke-linejoin="round"/>
</svg>
