<svg width="20" height="24" viewBox="0 0 20 24" fill="none" xmlns="http://www.w3.org/2000/svg">
<path d="M11.5737 12.75H9.54071C8.79971 12.751 8.19871 13.352 8.19971 14.093C8.19971 14.64 8.53271 15.133 9.04071 15.337L11.1047 16.163C11.7927 16.44 12.1257 17.221 11.8487 17.909C11.6447 18.417 11.1517 18.75 10.6047 18.75H8.57371" stroke="black" stroke-width="1.5" stroke-linecap="round" stroke-linejoin="round"/>
<path d="M10.0737 12.75V12" stroke="black" stroke-width="1.5" stroke-linecap="round" stroke-linejoin="round"/>
<path d="M10.0737 19.5V18.75" stroke="black" stroke-width="1.5" stroke-linecap="round" stroke-linejoin="round"/>
<path d="M4.82373 8.25H15.3237" stroke="black" stroke-width="1.5" stroke-linecap="round" stroke-linejoin="round"/>
<path d="M13.6298 5.03624L15.0678 2.16024C15.2528 1.78924 15.1028 1.33924 14.7318 1.15424C14.5208 1.04924 14.2728 1.04924 14.0618 1.15424L12.1618 2.10224C11.8238 2.27124 11.4128 2.16224 11.2028 1.84724L10.6998 1.08424C10.4698 0.739242 10.0048 0.646242 9.65984 0.876242C9.57784 0.931242 9.50684 1.00224 9.45184 1.08424L8.94284 1.84724C8.73384 2.16224 8.32184 2.27124 7.98384 2.10224L6.08684 1.15424C5.71584 0.970242 5.26484 1.12124 5.07984 1.49324C4.97584 1.70324 4.97484 1.95024 5.07984 2.16024L6.48984 4.98024" stroke="black" stroke-width="1.5" stroke-linecap="round" stroke-linejoin="round"/>
<path d="M5.23684 10.5L2.47684 13.7C0.478843 16.297 0.964843 20.021 3.56184 22.019C4.59884 22.816 5.86984 23.249 7.17684 23.249H12.9668C16.2428 23.248 18.8978 20.591 18.8968 17.315C18.8968 16.007 18.4638 14.736 17.6668 13.7L14.9068 10.5" stroke="black" stroke-width="1.5" stroke-linecap="round" stroke-linejoin="round"/>
</svg>
