<svg width="24" height="24" viewBox="0 0 24 24" fill="none" xmlns="http://www.w3.org/2000/svg">
<path d="M12 4.5C13.657 4.5 15 5.843 15 7.5C15 9.157 13.657 10.5 12 10.5C10.343 10.5 9 9.157 9 7.5C9 5.843 10.343 4.5 12 4.5Z" stroke="#39424F" stroke-width="1.5" stroke-linecap="round" stroke-linejoin="round"/>
<path d="M12 0.75C15.728 0.75 18.75 3.772 18.75 7.5C18.75 10.751 13.618 18.027 12.304 19.837C12.181 20.005 11.945 20.041 11.777 19.918C11.746 19.895 11.719 19.868 11.696 19.837C10.382 18.027 5.25 10.751 5.25 7.5C5.25 3.772 8.272 0.75 12 0.75Z" stroke="#39424F" stroke-width="1.5" stroke-linecap="round" stroke-linejoin="round"/>
<path d="M17.979 17.7841C20.711 18.3251 22.5 19.2281 22.5 20.2501C22.5 21.9071 17.8 23.2501 12 23.2501C6.2 23.2501 1.5 21.9071 1.5 20.2501C1.5 19.2301 3.281 18.3291 6 17.7871" stroke="#39424F" stroke-width="1.5" stroke-linecap="round" stroke-linejoin="round"/>
</svg>
