<svg width="24" height="24" viewBox="0 0 24 24" fill="none" xmlns="http://www.w3.org/2000/svg">
<path d="M5.25 3.75H18.75C19.578 3.75 20.25 4.422 20.25 5.25V18.75C20.25 19.578 19.578 20.25 18.75 20.25H5.25C4.422 20.25 3.75 19.578 3.75 18.75V5.25C3.75 4.422 4.422 3.75 5.25 3.75Z" stroke="#39424F" stroke-width="1.5" stroke-linecap="round" stroke-linejoin="round"/>
<path d="M12 3.75V1.5" stroke="#39424F" stroke-width="1.5" stroke-linecap="round" stroke-linejoin="round"/>
<path d="M6.75 3.75V1.5" stroke="#39424F" stroke-width="1.5" stroke-linecap="round" stroke-linejoin="round"/>
<path d="M17.25 3.75V1.5" stroke="#39424F" stroke-width="1.5" stroke-linecap="round" stroke-linejoin="round"/>
<path d="M12 22.5V20.25" stroke="#39424F" stroke-width="1.5" stroke-linecap="round" stroke-linejoin="round"/>
<path d="M6.75 22.5V20.25" stroke="#39424F" stroke-width="1.5" stroke-linecap="round" stroke-linejoin="round"/>
<path d="M17.25 22.5V20.25" stroke="#39424F" stroke-width="1.5" stroke-linecap="round" stroke-linejoin="round"/>
<path d="M22.5 12H20.25" stroke="#39424F" stroke-width="1.5" stroke-linecap="round" stroke-linejoin="round"/>
<path d="M22.5 17.25H20.25" stroke="#39424F" stroke-width="1.5" stroke-linecap="round" stroke-linejoin="round"/>
<path d="M22.5 6.75H20.25" stroke="#39424F" stroke-width="1.5" stroke-linecap="round" stroke-linejoin="round"/>
<path d="M3.75 12H1.5" stroke="#39424F" stroke-width="1.5" stroke-linecap="round" stroke-linejoin="round"/>
<path d="M3.75 17.25H1.5" stroke="#39424F" stroke-width="1.5" stroke-linecap="round" stroke-linejoin="round"/>
<path d="M3.75 6.75H1.5" stroke="#39424F" stroke-width="1.5" stroke-linecap="round" stroke-linejoin="round"/>
<path d="M8.25 6.75H15.75C16.578 6.75 17.25 7.422 17.25 8.25V15.75C17.25 16.578 16.578 17.25 15.75 17.25H8.25C7.422 17.25 6.75 16.578 6.75 15.75V8.25C6.75 7.422 7.422 6.75 8.25 6.75Z" stroke="#39424F" stroke-width="1.5" stroke-linecap="round" stroke-linejoin="round"/>
<path d="M14.25 14.25H12" stroke="#39424F" stroke-width="1.5" stroke-linecap="round" stroke-linejoin="round"/>
</svg>
