<?xml version="1.0" encoding="UTF-8"?>
<svg width="16px" height="16px" viewBox="0 0 16 16" version="1.1" xmlns="http://www.w3.org/2000/svg" xmlns:xlink="http://www.w3.org/1999/xlink">
    <!-- Generator: Sketch 53.2 (72643) - https://sketchapp.com -->
    <title>Verified Partner Icon</title>
    <desc>Created with Sketch.</desc>
    <defs>
        <linearGradient x1="2.91803643%" y1="2.88942826%" x2="101.999998%" y2="100.999999%" id="linearGradient-1">
            <stop stop-color="#4E9DF5" offset="0%"></stop>
            <stop stop-color="#48B2F4" offset="100%"></stop>
        </linearGradient>
        <path d="M6.87306977,15.151867 L6.87306977,15.151867 C6.22851431,15.4516163 5.46162067,15.226436 5.08144282,14.6257978 L5.08144282,14.6257978 C4.65998438,13.959941 3.96613963,13.514034 3.18537475,13.4072689 L3.18537475,13.4072689 C2.48108348,13.3109611 1.95767315,12.7069133 1.9625767,11.9960847 L1.9625767,11.9960847 C1.96801269,11.2080726 1.62538884,10.457831 1.02628923,9.94590112 L1.02628923,9.94590112 C0.485869643,9.48411322 0.372121707,8.69297895 0.760549817,8.09764291 L0.760549817,8.09764291 C1.19115436,7.43766388 1.30853206,6.62128406 1.0813076,5.8667235 L1.0813076,5.8667235 C0.876339107,5.18606991 1.20836773,4.45902864 1.85699722,4.16820018 L1.85699722,4.16820018 C2.57605641,3.84579288 3.11616907,3.22246965 3.33296193,2.4648461 L3.33296193,2.4648461 C3.52852057,1.78142952 4.20090901,1.34931171 4.90380459,1.45532682 L4.90380459,1.45532682 C5.68302222,1.57285329 6.47438789,1.34048737 7.06636786,0.820340947 L7.06636786,0.820340947 C7.60036516,0.351141323 8.39963484,0.351141323 8.93363214,0.820340947 L8.93363214,0.820340947 C9.52561211,1.34048737 10.3169778,1.57285329 11.0961954,1.45532682 L11.0961954,1.45532682 C11.799091,1.34931171 12.4714794,1.78142952 12.6670381,2.4648461 L12.6670381,2.4648461 C12.8838309,3.22246965 13.4239436,3.84579288 14.1430028,4.16820018 L14.1430028,4.16820018 C14.7916323,4.45902864 15.1236609,5.18606991 14.9186924,5.8667235 L14.9186924,5.8667235 C14.6914679,6.62128406 14.8088456,7.43766388 15.2394502,8.09764291 L15.2394502,8.09764291 C15.6278783,8.69297895 15.5141304,9.48411322 14.9737108,9.94590112 L14.9737108,9.94590112 C14.3746112,10.457831 14.0319873,11.2080726 14.0374233,11.9960847 L14.0374233,11.9960847 C14.0423269,12.7069133 13.5189165,13.3109611 12.8146252,13.4072689 L12.8146252,13.4072689 C12.0338604,13.514034 11.3400156,13.959941 10.9185572,14.6257978 L10.9185572,14.6257978 C10.5383793,15.226436 9.77148569,15.4516163 9.12693023,15.151867 L9.12693023,15.151867 C8.41238742,14.8195702 7.58761258,14.8195702 6.87306977,15.151867 Z" id="path-2"></path>
    </defs>
    <g id="Page-1" stroke="none" stroke-width="1" fill="none" fill-rule="evenodd">
        <g id="Marketplace-home" transform="translate(-527.000000, -377.000000)">
            <g id="Group" transform="translate(441.000000, 349.000000)">
                <g id="Card-01">
                    <g id="Card/RFP">
                        <g id="Content">
                            <g id="Verified-Partner-Icon" transform="translate(86.000000, 28.000000)">
                                <g id="Star">
                                    <use fill="#3BBDED" xlink:href="#path-2"></use>
                                    <use fill="url(#linearGradient-1)" xlink:href="#path-2"></use>
                                </g>
                                <g id="Double-check" transform="translate(3.000000, 3.500000)">
                                    <polygon id="Shape" points="0 0 10 0 10 10 0 10"></polygon>
                                    <path d="M2.73414975,6.85319349 C2.58511377,7.02852993 2.32215797,7.04985067 2.14682153,6.9008147 C1.97148508,6.75177872 1.95016434,6.48882292 2.09920032,6.31348647 L5.64086699,2.14681981 C5.79224244,1.96873104 6.06046732,1.94997041 6.23515997,2.10525276 L8.11015997,3.77191943 C8.28215279,3.92480194 8.29764476,4.18816543 8.14476225,4.36015825 C7.99187975,4.53215107 7.72851626,4.54764304 7.55652344,4.39476053 L5.99991894,3.01111209 L2.73414975,6.85319349 Z" id="Path-94" fill="#FFFFFF" fill-rule="nonzero" transform="translate(5.125006, 4.500008) rotate(-180.000000) translate(-5.125006, -4.500008) "></path>
                                </g>
                            </g>
                        </g>
                    </g>
                </g>
            </g>
        </g>
    </g>
</svg>