<?xml version="1.0" encoding="UTF-8"?>
<svg width="137px" height="104px" viewBox="0 0 137 104" version="1.1" xmlns="http://www.w3.org/2000/svg" xmlns:xlink="http://www.w3.org/1999/xlink">
    <!-- Generator: Sketch 52.2 (67145) - http://www.bohemiancoding.com/sketch -->
    <title>Illustration</title>
    <desc>Created with Sketch.</desc>
    <g id="Website" stroke="none" stroke-width="1" fill="none" fill-rule="evenodd">
        <g id="Halo" transform="translate(-651.000000, -3120.000000)" fill-rule="nonzero">
            <g id="Section-4" transform="translate(220.000000, 3000.000000)">
                <g id="For-Universities" transform="translate(341.000000, 121.000000)">
                    <g id="Illustration">
                        <g transform="translate(91.000000, 0.000000)">
                            <g id="Right-2" transform="translate(104.000000, 48.000000)" stroke="#9880D8">
                                <path d="M0,0 L29,0 C30.1045695,-2.02906125e-16 31,0.8954305 31,2 L31,54 L0,54 L0,0 Z" id="Rectangle" stroke-width="2" fill="#FFFFFF"></path>
                                <rect id="Rectangle-Copy-2" fill="#EAE3FB" x="5" y="7" width="8" height="10" rx="1"></rect>
                                <rect id="Rectangle-Copy-2" fill="#EAE3FB" x="18" y="7" width="8" height="10" rx="1"></rect>
                                <rect id="Rectangle-Copy-2" fill="#EAE3FB" x="5" y="25" width="8" height="10" rx="1"></rect>
                                <rect id="Rectangle-Copy-2" fill="#EAE3FB" x="18" y="25" width="8" height="10" rx="1"></rect>
                            </g>
                            <g id="Left-2" transform="translate(0.000000, 48.000000)" stroke="#9880D8">
                                <path d="M2,0 L31,0 L31,54 L0,54 L0,2 C-1.3527075e-16,0.8954305 0.8954305,2.02906125e-16 2,0 Z" id="Rectangle" stroke-width="2" fill="#FFFFFF"></path>
                                <rect id="Rectangle-Copy-2" fill="#EAE3FB" x="5" y="7" width="8" height="10" rx="1"></rect>
                                <rect id="Rectangle-Copy-2" fill="#EAE3FB" x="18" y="7" width="8" height="10" rx="1"></rect>
                                <rect id="Rectangle-Copy-2" fill="#EAE3FB" x="5" y="25" width="8" height="10" rx="1"></rect>
                                <rect id="Rectangle-Copy-2" fill="#EAE3FB" x="18" y="25" width="8" height="10" rx="1"></rect>
                            </g>
                            <g id="Left-1" transform="translate(31.000000, 32.000000)" stroke="#9880D8">
                                <path d="M2,0 L18,0 C19.1045695,-2.02906125e-16 20,0.8954305 20,2 L20,70 L0,70 L0,2 C-1.3527075e-16,0.8954305 0.8954305,2.02906125e-16 2,0 Z" id="Rectangle" stroke-width="2" fill="#EAE3FB"></path>
                                <rect id="Rectangle" fill="#FFFFFF" x="6" y="6" width="8" height="10" rx="1"></rect>
                                <rect id="Rectangle" fill="#FFFFFF" x="6" y="23" width="8" height="10" rx="1"></rect>
                                <rect id="Rectangle" fill="#FFFFFF" x="6" y="41" width="8" height="10" rx="1"></rect>
                            </g>
                            <g id="Right-1" transform="translate(84.000000, 32.000000)" stroke="#9880D8">
                                <path d="M2,0 L18,0 C19.1045695,-2.02906125e-16 20,0.8954305 20,2 L20,70 L0,70 L0,2 C-1.3527075e-16,0.8954305 0.8954305,2.02906125e-16 2,0 Z" id="Rectangle" stroke-width="2" fill="#EAE3FB"></path>
                                <rect id="Rectangle" fill="#FFFFFF" x="6" y="6" width="8" height="10" rx="1"></rect>
                                <rect id="Rectangle" fill="#FFFFFF" x="6" y="23" width="8" height="10" rx="1"></rect>
                                <rect id="Rectangle" fill="#FFFFFF" x="6" y="41" width="8" height="10" rx="1"></rect>
                            </g>
                            <g id="Center" transform="translate(51.000000, 0.000000)">
                                <path d="M0,49 L7,49 C7.55228475,49 8,48.5522847 8,48 L8,45.4142136 C8,45.1489971 8.10535684,44.8946432 8.29289322,44.7071068 L11.7784331,41.2215669 C11.9226864,41.0773136 12.0193695,40.8923915 12.0555096,40.6916131 L16.5,16 L20.4488033,40.6800209 C20.4820826,40.8880163 20.5801916,41.0801916 20.7291372,41.2291372 L24.2071068,44.7071068 C24.3946432,44.8946432 24.5,45.1489971 24.5,45.4142136 L24.5,48 C24.5,48.5522847 24.9477153,49 25.5,49 L33,49 L33,102 L0,102 L0,49 Z" id="Rectangle" stroke="#9880D8" stroke-width="2" fill="#EAE3FB"></path>
                                <g id="Group-29" transform="translate(9.000000, 55.000000)">
                                    <rect id="Rectangle" stroke="#9880D8" stroke-width="2" fill="#FFFFFF" x="0" y="0" width="16" height="10" rx="1"></rect>
                                    <rect id="Rectangle" x="8" y="1" width="7" height="8"></rect>
                                </g>
                                <path d="M17,82 L17,82 C20.8659932,82 24,85.1340068 24,89 L24,102 L10,102 L10,89 C10,85.1340068 13.1340068,82 17,82 Z" id="Rectangle" stroke="#9880D8" stroke-width="2" fill="#FFFFFF"></path>
                                <g id="Flag" transform="translate(16.000000, 0.000000)" stroke="#9880D8" stroke-width="2">
                                    <path d="M1,2.73670438 L1,12.429455 C8.12987354,16.5796548 15.1144729,17.8331978 22,16.2190023 L22,6.26569178 C14.9880834,7.77418984 7.97492443,6.59077067 1,2.73670432 Z" id="Rectangle" fill="#FFFFFF"></path>
                                    <path d="M0.5,0 L0.5,20" id="Line-8" stroke-linecap="round"></path>
                                </g>
                            </g>
                        </g>
                    </g>
                </g>
            </g>
        </g>
    </g>
</svg>