<svg xmlns="http://www.w3.org/2000/svg" width="53" height="47" viewBox="0 0 53 47">
    <g fill="#49cfa9" fill-rule="evenodd">
        <path d="M21.465 9.333c1.336-.56 1.897-2.15 1.293-3.44l-2.112-4.43C20.043.218 18.577-.341 17.284.218c-3.664 1.548-6.81 3.569-9.31 6.02-3.06 2.88-5.13 6.191-6.25 9.846C.604 19.782 0 24.813 0 31.22V44.42A2.59 2.59 0 0 0 2.586 47h16.94a2.59 2.59 0 0 0 2.586-2.58V27.521a2.59 2.59 0 0 0-2.587-2.58h-8.103c.086-4.343 1.12-7.826 3.017-10.449 1.552-2.106 3.88-3.826 7.026-5.16zM51.462 9.298c1.339-.56 1.9-2.152 1.296-3.443l-2.116-4.39A2.586 2.586 0 0 0 47.273.217C43.646 1.767 40.536 3.79 37.99 6.2c-3.066 2.927-5.182 6.241-6.305 9.9C30.56 19.712 30 24.748 30 31.204v13.213A2.594 2.594 0 0 0 32.591 47h16.971a2.594 2.594 0 0 0 2.591-2.582V27.504a2.594 2.594 0 0 0-2.59-2.583H41.4c.086-4.347 1.123-7.833 3.022-10.459 1.555-2.108 3.887-3.83 7.04-5.164z"/>
    </g>
</svg>
