<?xml version="1.0" encoding="UTF-8"?>
<svg width="28px" height="28px" viewBox="0 0 28 28" version="1.1" xmlns="http://www.w3.org/2000/svg" xmlns:xlink="http://www.w3.org/1999/xlink">
    <!-- Generator: Sketch 48.2 (47327) - http://www.bohemiancoding.com/sketch -->
    <title>cross</title>
    <desc>Created with Sketch.</desc>
    <defs></defs>
    <g id="Page-1" stroke="none" stroke-width="1" fill="none" fill-rule="evenodd">
        <g id="cross" fill="#FFFFFF" fill-rule="nonzero">
            <path d="M13.981,0 C6.261,0 0.002,6.259 0.002,13.979 C0.002,21.703 6.261,27.963 13.981,27.963 C21.703,27.963 27.961,21.702 27.961,13.979 C27.962,6.259 21.703,0 13.981,0 Z M13.981,26.531 C7.05,26.531 1.431,20.911 1.431,13.978 C1.431,7.047 7.05,1.431 13.981,1.431 C20.911,1.431 26.533,7.047 26.533,13.978 C26.533,20.911 20.911,26.531 13.981,26.531 Z" id="Shape"></path>
            <polygon id="Shape" points="16.162 6.858 11.864 6.858 11.864 11.759 6.862 11.759 6.862 16.058 11.864 16.058 11.864 21.1 16.162 21.1 16.162 16.058 21.101 16.058 21.101 11.759 16.162 11.759"></polygon>
        </g>
    </g>
</svg>