<?xml version="1.0" encoding="UTF-8"?>
<svg width="16px" height="16px" viewBox="0 0 16 16" version="1.1" xmlns="http://www.w3.org/2000/svg" xmlns:xlink="http://www.w3.org/1999/xlink">
    <!-- Generator: Sketch 53.2 (72643) - https://sketchapp.com -->
    <title>Group</title>
    <desc>Created with Sketch.</desc>
    <defs>
        <path d="M9.55542,3.55554 C9.55542,4.41467 8.85901,5.11108 7.99988,5.11108 C7.14075,5.11108 6.44434,4.41467 6.44434,3.55554 C6.44434,2.69641 7.14075,2 7.99988,2 C8.85901,2 9.55542,2.69641 9.55542,3.55554 Z M11.5554,3.55554 C11.5554,5.51929 9.96362,7.11108 7.99988,7.11108 C6.03625,7.11108 4.44434,5.51929 4.44434,3.55554 C4.44434,1.59192 6.03625,0 7.99988,0 C9.96362,0 11.5554,1.59192 11.5554,3.55554 Z M10.0481,10.5251 C11.8579,10.9429 13.2548,12.2946 13.7771,14 L2.2229,14 C2.74524,12.2946 4.14209,10.9429 5.9519,10.5251 L6.10583,10.4897 C7.35217,10.202 8.64783,10.202 9.89417,10.4897 L10.0481,10.5251 Z M5.65601,8.54089 L5.5022,8.57642 C2.28149,9.3197 0,12.1876 0,15.4929 C0,15.7729 0.227051,16 0.50708,16 L15.4929,16 C15.7729,16 16,15.7729 16,15.4929 C16,12.1876 13.7185,9.3197 10.4978,8.57642 L10.344,8.54089 C8.80164,8.18494 7.19836,8.18494 5.65601,8.54089 Z" id="path-1"></path>
    </defs>
    <g id="Page-1" stroke="none" stroke-width="1" fill="none" fill-rule="evenodd">
        <g id="Marketplace-RFP" transform="translate(-1271.000000, -51.000000)">
            <g id="Group" transform="translate(1271.000000, 51.000000)">
                <mask id="mask-2" fill="white">
                    <use xlink:href="#path-1"></use>
                </mask>
                <use id="Shape" fill="#000000" xlink:href="#path-1"></use>
                <g id="Color" mask="url(#mask-2)" fill="#131E29">
                    <g transform="translate(-3.000000, -3.000000)" id="Rectangle">
                        <rect x="0" y="0" width="22" height="22"></rect>
                    </g>
                </g>
            </g>
        </g>
    </g>
</svg>