<?xml version="1.0" encoding="UTF-8"?>
<svg width="11px" height="11px" viewBox="0 0 11 11" version="1.1" xmlns="http://www.w3.org/2000/svg" xmlns:xlink="http://www.w3.org/1999/xlink">
    <!-- Generator: Sketch 53.2 (72643) - https://sketchapp.com -->
    <title>Info</title>
    <desc>Created with Sketch.</desc>
    <g id="Page-1" stroke="none" stroke-width="1" fill="none" fill-rule="evenodd">
        <g id="Profile-Investigator-View" transform="translate(-386.000000, -142.000000)">
            <g id="Group-4" transform="translate(226.000000, 133.000000)">
                <g id="Info" transform="translate(159.000000, 8.000000)">
                    <rect id="bound" x="0" y="0" width="13" height="13"></rect>
                    <path d="M6.5,11.9166667 C3.50845761,11.9166667 1.08333333,9.49154239 1.08333333,6.5 C1.08333333,3.50845761 3.50845761,1.08333333 6.5,1.08333333 C9.49154239,1.08333333 11.9166667,3.50845761 11.9166667,6.5 C11.9166667,9.49154239 9.49154239,11.9166667 6.5,11.9166667 Z M6.5,5.41666667 C6.20084576,5.41666667 5.95833333,5.65917909 5.95833333,5.95833333 L5.95833333,8.66666667 C5.95833333,8.96582091 6.20084576,9.20833333 6.5,9.20833333 C6.79915424,9.20833333 7.04166667,8.96582091 7.04166667,8.66666667 L7.04166667,5.95833333 C7.04166667,5.65917909 6.79915424,5.41666667 6.5,5.41666667 Z M6.5,3.79166667 C6.20084576,3.79166667 5.95833333,4.03417909 5.95833333,4.33333333 C5.95833333,4.63248757 6.20084576,4.875 6.5,4.875 C6.79915424,4.875 7.04166667,4.63248757 7.04166667,4.33333333 C7.04166667,4.03417909 6.79915424,3.79166667 6.5,3.79166667 Z" id="Combined-Shape" fill="#131E29"></path>
                </g>
            </g>
        </g>
    </g>
</svg>