<?xml version="1.0" encoding="UTF-8"?>
<svg width="16px" height="13px" viewBox="0 0 16 13" version="1.1" xmlns="http://www.w3.org/2000/svg" xmlns:xlink="http://www.w3.org/1999/xlink">
    <!-- Generator: Sketch 53.2 (72643) - https://sketchapp.com -->
    <title>Menu</title>
    <desc>Created with Sketch.</desc>
    <g id="Page-1" stroke="none" stroke-width="1" fill="none" fill-rule="evenodd">
        <g id="Profile-Investigator-View" transform="translate(-1171.000000, -676.000000)">
            <g id="Group-5" transform="translate(1162.000000, 624.000000)">
                <g id="Menu" transform="translate(5.000000, 47.000000)">
                    <rect id="bound" x="0" y="0" width="24" height="24"></rect>
                    <rect id="Rectangle-20" fill="#FAFAFB" x="4" y="5" width="16" height="3" rx="1.5"></rect>
                    <path d="M5.5,15 L18.5,15 C19.3284271,15 20,15.6715729 20,16.5 C20,17.3284271 19.3284271,18 18.5,18 L5.5,18 C4.67157288,18 4,17.3284271 4,16.5 C4,15.6715729 4.67157288,15 5.5,15 Z M5.5,10 L18.5,10 C19.3284271,10 20,10.6715729 20,11.5 C20,12.3284271 19.3284271,13 18.5,13 L5.5,13 C4.67157288,13 4,12.3284271 4,11.5 C4,10.6715729 4.67157288,10 5.5,10 Z" id="Combined-Shape" fill="#FAFAFB" opacity="0.597642299"></path>
                </g>
            </g>
        </g>
    </g>
</svg>