<?xml version="1.0" encoding="UTF-8"?>
<svg width="11px" height="10px" viewBox="0 0 11 10" version="1.1" xmlns="http://www.w3.org/2000/svg" xmlns:xlink="http://www.w3.org/1999/xlink">
    <!-- Generator: Sketch 53.2 (72643) - https://sketchapp.com -->
    <title>Share</title>
    <desc>Created with Sketch.</desc>
    <g id="Page-1" stroke="none" stroke-width="1" fill="none" fill-rule="evenodd">
        <g id="Marketplace-RFP" transform="translate(-637.000000, -328.000000)">
            <g id="Button" transform="translate(624.000000, 317.000000)">
                <g id="Group-4">
                    <g id="Share" transform="translate(12.000000, 10.000000)">
                        <rect id="bound" x="0" y="0" width="12" height="12"></rect>
                        <path d="M5.45,1 C5.72614237,1 5.95,1.22385763 5.95,1.5 C5.95,1.77614237 5.72614237,2 5.45,2 L3,2 C2.44771525,2 2,2.44771525 2,3 L2,9 C2,9.55228475 2.44771525,10 3,10 L9,10 C9.55228475,10 10,9.55228475 10,9 L10,8 C10,7.72385763 10.2238576,7.5 10.5,7.5 C10.7761424,7.5 11,7.72385763 11,8 L11,9 C11,10.1045695 10.1045695,11 9,11 L3,11 C1.8954305,11 1,10.1045695 1,9 L1,3 C1,1.8954305 1.8954305,1 3,1 L5.45,1 Z" id="Path-57" fill="#8A94A6" fill-rule="nonzero" opacity="0.3"></path>
                        <path d="M12.0345288,6.94867495 C12.0345288,6.56731656 12.1162484,5.06231293 10.9290435,3.86829798 C10.1300069,3.06472138 8.93417591,2.92534397 7.50408196,2.86178424 L7.50408196,1.76549551 C7.50408196,1.35128195 7.16829553,1.01549551 6.75408196,1.01549551 C6.56777173,1.01549551 6.38813101,1.08484039 6.25014463,1.2100253 L3.92603252,3.31852154 C3.61925479,3.59683844 3.59618273,4.07115136 3.87449964,4.37792909 C3.88910773,4.39403101 3.90440905,4.40949013 3.92036025,4.42426265 L6.24447236,6.57663861 C6.54837859,6.85808822 7.02290325,6.83988354 7.30435286,6.53597731 C7.43275098,6.39733441 7.50408196,6.21533314 7.50408196,6.02636771 L7.50408196,4.95380739 C8.41207812,4.97877728 9.05885981,5.03653323 9.6464989,5.22348225 C10.4722993,5.48619888 11.1149967,6.21997209 11.5745911,7.42480186 L11.5746012,7.42479798 C11.6477306,7.61650713 11.8316152,7.74317159 12.0367988,7.74317159 L12.0367988,7.74317159 C12.0367988,7.51390255 12.0345288,7.15070409 12.0345288,6.94867495 Z" id="Shape" fill="#8A94A6" fill-rule="nonzero" transform="translate(7.768399, 4.143565) scale(-1, 1) translate(-7.768399, -4.143565) "></path>
                    </g>
                </g>
            </g>
        </g>
    </g>
</svg>